<svg width="460" height="173" xmlns="http://www.w3.org/2000/svg" xmlns:xlink="http://www.w3.org/1999/xlink" overflow="hidden"><defs><clipPath id="clip0"><rect x="2091" y="4263" width="460" height="173"/></clipPath></defs><g clip-path="url(#clip0)" transform="translate(-2091 -4263)"><path d="M124.066 163.208C129.657 163.208 132.453 161.81 132.453 157.616 132.453 156.218 132.453 153.073 129.657 150.277 79.6816 81.0796 79.6816 81.0796 79.6816 81.0796 79.6816 81.0796 78.2837 79.6816 79.6816 79.6816 126.862 14.6782 126.862 14.6782 126.862 14.6782 128.259 11.5329 129.657 8.73702 129.657 5.94117 129.657 1.39792 126.862 0 119.522 0 105.543 0 105.543 0 105.543 0 99.602 0 95.4083 1.39792 91.2145 7.3391 51.3737 63.6055 51.3737 63.6055 51.3737 63.6055 45.4325 69.5467 44.0346 73.7405 44.0346 79.6816 44.0346 88.0692 45.4325 91.2145 51.3737 98.2041 92.6124 156.218 92.6124 156.218 92.6124 156.218 95.4083 161.81 99.602 163.208 106.941 163.208M357.868 108.339C357.868 105.543 356.47 104.145 355.073 101.349 346.335 72.3425 346.335 72.3425 346.335 72.3425 344.938 70.9446 343.54 69.5467 342.142 69.5467 339.346 69.5467 337.948 70.9446 336.55 73.7405 336.55 73.7405 326.415 108.339 326.415 112.882 323.619 99.9515 296.709 8.73702 296.709 8.73702 293.564 1.39792 292.166 0 285.176 0 272.246 0 272.246 0 272.246 0 265.256 0 262.46 3.14533 262.46 7.3391 262.46 8.73702 263.858 11.5329 263.858 13.2803 307.893 153.073 307.893 153.073 307.893 153.073 310.688 161.81 313.834 163.208 320.823 163.208 330.958 163.208 330.958 163.208 330.958 163.208 339.346 163.208 342.142 161.81 343.54 153.073 355.073 117.076 355.073 117.076 355.073 117.076 355.073 117.076 357.868 111.484 357.868 108.339M407.844 163.208C414.834 163.208 417.979 161.81 420.775 153.073 464.809 13.2803 464.809 13.2803 464.809 13.2803 464.809 11.5329 466.207 8.73702 466.207 7.3391 466.207 3.14533 463.412 0 457.82 0 443.491 0 443.491 0 443.491 0 436.502 0 434.754 1.39792 433.356 8.73702 433.356 8.73702 406.446 99.9515 403.65 112.882 399.107 99.9515 372.197 8.73702 372.197 8.73702 370.799 1.39792 369.401 0 362.062 0 348.083 0 348.083 0 348.083 0 342.142 0 339.346 3.14533 339.346 7.3391 339.346 8.73702 340.744 11.5329 340.744 13.2803 385.128 153.073 385.128 153.073 385.128 153.073 387.924 161.81 390.72 163.208 397.709 163.208M228.211 69.5467C236.599 69.5467 239.394 72.3425 239.394 82.4775 239.394 88.0692 239.394 88.0692 239.394 88.0692 239.394 98.2041 236.599 101.349 228.211 101.349 209.688 101.349 209.688 101.349 209.688 101.349 200.951 101.349 198.156 98.2041 198.156 88.0692 198.156 82.4775 198.156 82.4775 198.156 82.4775 198.156 72.3425 200.951 69.5467 209.688 69.5467M174.041 163.208C183.827 163.208 186.623 160.412 186.623 151.675 186.623 46.4809 186.623 46.4809 186.623 46.4809 186.623 39.1418 192.564 33.2007 199.554 33.2007 237.996 33.2007 237.996 33.2007 237.996 33.2007 246.733 33.2007 249.529 30.4048 249.529 20.2699 249.529 13.2803 249.529 13.2803 249.529 13.2803 249.529 3.14533 246.733 0 237.996 0 189.419 0 189.419 0 189.419 0 168.1 0 152.374 14.6782 152.374 41.9377 152.374 151.675 152.374 151.675 152.374 151.675 152.374 160.412 155.169 163.208 165.304 163.208M21.3183 163.208C31.1038 163.208 34.2491 160.412 34.2491 151.675 34.2491 11.5329 34.2491 11.5329 34.2491 11.5329 34.2491 3.14533 31.1038 0 21.3183 0 12.5813 0 12.5813 0 12.5813 0 2.79585 0 0 3.14533 0 11.5329 0 151.675 0 151.675 0 151.675 0 160.412 2.79585 163.208 12.5813 163.208" fill="#006098" transform="matrix(1.00477 0 0 1 2086.78 4267.9)"/></g></svg>