<svg xmlns="http://www.w3.org/2000/svg" data-name="Layer 1" viewBox="0 0 99 122.9375" x="0px" y="0px"><title>Artboard 77</title><path d="M49.5,45.9A3.27,3.27,0,0,0,47.85,52V78.68h3.3V52A3.27,3.27,0,0,0,49.5,45.9Z"/><path d="M42.5,42.22a9.79,9.79,0,0,0,0,13.91l2.35-2.33a6.51,6.51,0,0,1,0-9.25Z"/><path d="M56.5,42.22l-2.35,2.33a6.51,6.51,0,0,1,0,9.25l2.35,2.33a9.79,9.79,0,0,0,0-13.91Z"/><path d="M35.5,35.27l-2.34-2.33a22.83,22.83,0,0,0,0,32.47l2.34-2.33a19.57,19.57,0,0,1,0-27.81Z"/><path d="M65.84,32.94,63.5,35.27a19.57,19.57,0,0,1,0,27.81l2.34,2.33a22.83,22.83,0,0,0,0-32.47Z"/><path d="M40.18,39.92l-2.35-2.34a16.33,16.33,0,0,0,0,23.19l2.35-2.34a13,13,0,0,1,0-18.51Z"/><path d="M61.17,37.58l-2.35,2.34a13,13,0,0,1,0,18.51l2.35,2.34a16.33,16.33,0,0,0,0-23.19Z"/><text x="0" y="113.35" fill="#000000" font-size="5px" font-weight="bold" font-family="'Helvetica Neue', Helvetica, Arial-Unicode, Arial, Sans-serif">Created by Tami Nova</text><text x="0" y="118.35" fill="#000000" font-size="5px" font-weight="bold" font-family="'Helvetica Neue', Helvetica, Arial-Unicode, Arial, Sans-serif">from the Noun Project</text></svg>