<svg xmlns="http://www.w3.org/2000/svg" viewBox="0 0 24 30" x="0px" y="0px"><defs><style>.cls-1{stroke-width:0px;}</style></defs><path class="cls-1" d="m11.003,4.863l.634-1.359c.174-.375.619-.539.997-.363.375.175.538.621.363.997l-.634,1.359c-.127.273-.398.433-.68.433-.106,0-.214-.022-.316-.07-.375-.175-.538-.621-.363-.997Zm3.419,3.865c.168,0,.337-.056.477-.172l1.156-.955c.319-.264.364-.736.101-1.056-.264-.32-.736-.366-1.056-.101l-1.156.955c-.319.264-.364.736-.101,1.056.148.18.362.272.579.272Zm-7.464-3.35c.09.335.393.556.724.556.064,0,.13-.008.195-.025.4-.107.637-.519.53-.919l-.366-1.366c-.107-.4-.52-.636-.919-.53-.4.107-.637.519-.53.919l.366,1.366Zm-2.001,6.123c0-.414-.336-.75-.75-.75h-1.414c-.414,0-.75.336-.75.75s.336.75.75.75h1.414c.414,0,.75-.336.75-.75Zm-1.944-4.204l1.225.707c.118.068.247.101.375.101.259,0,.511-.134.65-.375.207-.359.084-.817-.274-1.024l-1.225-.707c-.359-.208-.817-.085-1.024.274-.207.359-.084.817.274,1.024Zm18.737,10.232c0,.461-.072.916-.214,1.35-.366,1.12-1.417,1.872-2.613,1.872H6.078c-1.197,0-2.247-.752-2.613-1.872-.142-.434-.214-.889-.214-1.35,0-2.199,1.632-4.01,3.704-4.195.009-.023.022-.044.031-.067-.779-.703-1.235-1.695-1.235-2.766,0-2.068,1.682-3.75,3.75-3.75,1.671,0,3.103,1.108,3.567,2.657,2.232.226,4.174,1.744,4.978,3.925,2.072.186,3.704,1.996,3.704,4.195Zm-14.5-7.028c0,.51.185.982.49,1.371.901-1.259,2.236-2.135,3.745-2.41-.372-.723-1.127-1.21-1.985-1.21-1.241,0-2.25,1.009-2.25,2.25Zm13,7.028c0-1.495-1.146-2.711-2.556-2.711-.019.003-.126.018-.146.019-.349.021-.682-.209-.774-.556-.537-2.013-2.294-3.419-4.274-3.419s-3.738,1.406-4.274,3.419c-.092.347-.427.568-.774.556-.02-.001-.121-.013-.14-.016h-.005c-1.413,0-2.556,1.215-2.556,2.708,0,.303.047.6.14.883.164.502.641.839,1.188.839h12.845c.546,0,1.023-.337,1.188-.839.093-.284.14-.581.14-.883Z"/><text x="0" y="39" fill="#000000" font-size="5px" font-weight="bold" font-family="'Helvetica Neue', Helvetica, Arial-Unicode, Arial, Sans-serif">Created by Saepul Nahwan</text><text x="0" y="44" fill="#000000" font-size="5px" font-weight="bold" font-family="'Helvetica Neue', Helvetica, Arial-Unicode, Arial, Sans-serif">from the Noun Project</text></svg>